<?xml version="1.0" standalone="no"?>
<!DOCTYPE svg PUBLIC "-//W3C//DTD SVG 1.1//EN" "http://www.w3.org/Graphics/SVG/1.1/DTD/svg11.dtd" >
<svg xmlns="http://www.w3.org/2000/svg">
<metadata></metadata>
<defs>
<font id="exo_2extra_light_condensed" horiz-adv-x="768" >
<font-face units-per-em="2048" ascent="1638" descent="-410" />
<missing-glyph horiz-adv-x="372" />
<glyph horiz-adv-x="0" />
<glyph horiz-adv-x="682" />
<glyph unicode=" "  horiz-adv-x="372" />
<glyph unicode="&#x09;" horiz-adv-x="372" />
<glyph unicode="&#xa0;" horiz-adv-x="372" />
<glyph unicode="!" horiz-adv-x="430" d="M168 35v123q0 19 8 27t27 8h24q19 0 27 -8t8 -27v-123q0 -19 -8 -27t-27 -8h-24q-19 0 -27 8t-8 27zM172 743v680h84v-680l-6 -323h-70z" />
<glyph unicode="&#x22;" horiz-adv-x="555" d="M131 1413h72l-6 -430h-60zM350 1413h74l-4 -430h-64z" />
<glyph unicode="#" horiz-adv-x="1107" d="M86 459l12 63h187l61 428h-190l12 64h186l56 399h73l-55 -399h340l55 399h72l-55 -399h180l-10 -64h-179l-61 -428h180l-10 -63h-178l-64 -459h-71l63 459h-340l-63 -459h-74l63 459h-190zM358 522h340l60 428h-340z" />
<glyph unicode="$" horiz-adv-x="921" d="M104 1071q0 63 5 113t16.5 87.5t26.5 64.5t39 45.5t49 30t62 17t72 7t85 0.5h20l10 209h52l-11 -211q130 -6 248 -27l-8 -61q-31 2 -114 7t-130 7l-28 -612l100 -21q125 -23 176 -109t51 -268q0 -62 -5.5 -111.5t-17 -87.5t-27 -66t-40 -47t-50 -31t-62.5 -18.5t-73 -9 t-85 -2.5h-10l-13 -249h-53l12 249q-134 4 -278 27l6 64q203 -13 277 -13l32 623l-112 22q-119 23 -170.5 111.5t-51.5 259.5zM193 1069q0 -143 37 -207.5t126 -83.5l90 -18l29 600h-14q-38 0 -59.5 -0.5t-50.5 -3.5t-44.5 -8.5t-35 -15t-29.5 -25t-21.5 -36.5t-16 -50 t-8 -66.5t-3.5 -85.5zM459 55h10q53 1 89 5t68.5 15.5t51.5 31.5t33.5 53t20 79t5.5 111q0 153 -37 216.5t-129 82.5l-79 17z" />
<glyph unicode="%" horiz-adv-x="1458" d="M90 1020q0 222 57.5 320t196.5 98q140 0 197 -97.5t57 -320.5t-57 -320.5t-197 -97.5q-139 0 -196.5 98t-57.5 320zM158 1020q0 -194 41 -277.5t143 -83.5q104 0 145 83.5t41 277.5t-41 277t-145 83q-102 0 -143 -83t-41 -277zM311 0l764 1413h66l-764 -1413h-66z M860 403q0 221 57 319.5t197 98.5q139 0 196.5 -98.5t57.5 -319.5q0 -222 -57.5 -320.5t-196.5 -98.5q-140 0 -197 98t-57 321zM928 403q0 -195 41 -278.5t145 -83.5q102 0 143 84t41 278t-41 277.5t-143 83.5q-104 0 -145 -83.5t-41 -277.5z" />
<glyph unicode="&#x26;" horiz-adv-x="1280" d="M123 356q0 173 50.5 266.5t172.5 106.5v8q-102 10 -146 91.5t-44 238.5q0 70 8.5 123.5t23.5 92.5t42.5 65.5t58.5 43t78.5 25.5t95.5 12t117 3q143 0 262 -19l-13 -61q-56 6 -251 6q-81 0 -131.5 -6t-92.5 -23.5t-63.5 -51.5t-33 -86t-11.5 -132q0 -119 25.5 -182 t78.5 -87t152 -24h344l14 305h68v-305h221l-4 -68h-217v-483q0 -156 121 -156h133l10 -57q-75 -16 -154 -16q-90 0 -138.5 50t-53.5 144q-75 -108 -167 -153t-226 -45q-181 0 -255.5 81.5t-74.5 292.5zM213 365q0 -174 55 -241t197 -67q130 0 220.5 51.5t160.5 161.5v428 h-346q-160 0 -223.5 -70.5t-63.5 -262.5z" />
<glyph unicode="'" horiz-adv-x="333" d="M131 1413h72l-6 -430h-60z" />
<glyph unicode="(" horiz-adv-x="587" d="M102 639q0 390 98.5 627.5t309.5 351.5l12 -49q-172 -112 -253 -338t-81 -590q0 -358 81 -585t253 -345l-12 -49q-210 115 -309 352t-99 625z" />
<glyph unicode=")" horiz-adv-x="587" d="M66 -289q172 118 252.5 344.5t80.5 585.5q0 364 -80.5 590t-252.5 338l10 49q210 -114 308.5 -351t98.5 -628q0 -388 -98.5 -625t-308.5 -352z" />
<glyph unicode="*" horiz-adv-x="743" d="M104 1157l21 60l199 -91l-2 -26l-13 -19zM190 834l160 262l-8 317h59l-10 -317l158 -265l-45 -34l-133 254l-131 -252zM420 1100v26l198 88l21 -59l-207 -74z" />
<glyph unicode="+" horiz-adv-x="905" d="M102 575v68h316v377h67v-377h318v-68h-318v-376h-65v376h-318z" />
<glyph unicode="," horiz-adv-x="356" d="M131 31v127q2 19 10 27t27 8h27q17 0 23.5 -8t8.5 -27l-2 -131q-4 -159 -41 -275l-41 15q13 133 13 233q-11 0 -18.5 9t-6.5 22z" />
<glyph unicode="-" d="M131 481v68h506v-68h-506z" />
<glyph unicode="." horiz-adv-x="356" d="M129 35v123q0 19 8 27t27 8h29q19 0 26.5 -8t7.5 -27v-123q0 -19 -7.5 -27t-26.5 -8h-29q-19 0 -27 8t-8 27z" />
<glyph unicode="/" horiz-adv-x="827" d="M53 -125l645 1538h74l-643 -1538h-76z" />
<glyph unicode="0" horiz-adv-x="972" d="M117 707q0 385 83.5 558t284.5 173q203 0 287 -173t84 -558t-84 -558.5t-287 -173.5q-201 0 -284.5 173.5t-83.5 558.5zM203 707q0 -349 63 -502.5t219 -153.5q158 0 221.5 153.5t63.5 502.5t-63.5 502t-221.5 153q-156 0 -219 -153t-63 -502z" />
<glyph unicode="1" horiz-adv-x="643" d="M57 1266l301 147h86v-1413h-86v1229q0 34 4 100l-292 -123z" />
<glyph unicode="2" horiz-adv-x="917" d="M96 0v51q0 15 15 41l364 541q115 168 165.5 288.5t47.5 237.5q-2 53 -15 90.5t-32.5 59.5t-53 34t-67 15.5t-82.5 3.5q-148 0 -321 -43l-11 63q186 56 332 56q69 0 117.5 -6.5t93 -24.5t70.5 -50t41.5 -83.5t15.5 -124.5q0 -135 -50 -255.5t-169 -293.5l-358 -524 q61 2 196 2h428v-78h-727z" />
<glyph unicode="3" horiz-adv-x="909" d="M94 10l10 66q212 -25 320 -25q150 0 214 79t64 267q0 54 -6 97t-23 85t-44.5 70t-74 45.5t-108.5 18.5l-210 2v63l210 4q59 2 102.5 23.5t67 52t37 75.5t17 82.5t2.5 84.5q-1 155 -57.5 208.5t-208.5 53.5q-137 0 -283 -23l-12 64q166 35 303 35q190 0 267 -71t77 -255 q0 -310 -174 -356v-8q56 -11 96 -42t62.5 -79t33 -104.5t12.5 -129.5q3 -216 -77 -317t-269 -101q-136 0 -348 35z" />
<glyph unicode="4" horiz-adv-x="993" d="M88 563l348 850h86l-346 -858q-15 -38 -0.5 -67t45.5 -29h465v448l19 238h67v-686h137v-62l-137 -8v-389h-86v387h-508q-58 0 -87 56.5t-3 119.5z" />
<glyph unicode="5" horiz-adv-x="870" d="M98 31l13 65q162 -47 286 -47q88 0 146 25.5t88 77.5t41 113.5t12 152.5q0 49 -3.5 88.5t-12.5 71.5t-19.5 56.5t-30.5 44t-38.5 32.5t-49.5 22.5t-58.5 15t-71.5 9t-82 4.5t-95 2l-47 2q-37 3 -37 43l27 604h569l-4 -74h-493l-19 -501l103 -2q101 -4 168 -15.5t124 -38 t88.5 -72.5t48.5 -117.5t17 -174.5q0 -62 -5 -111t-17.5 -102.5t-38 -92.5t-63.5 -71.5t-96 -49t-134 -16.5q-142 0 -316 56z" />
<glyph unicode="6" horiz-adv-x="931" d="M123 633q0 150 8.5 265t23.5 200.5t42 145t58.5 98t78.5 59.5t97 29t118 8q125 0 209 -27l-13 -61q-68 14 -196 14q-65 0 -109.5 -9t-84.5 -34.5t-64.5 -69t-43 -115t-27 -170t-11.5 -235.5q68 98 138.5 137t174.5 39q176 0 242.5 -104t66.5 -373q0 -91 -7.5 -156 t-29 -125t-59.5 -96t-100.5 -57t-149.5 -21q-78 0 -133.5 14t-96.5 49t-66 83t-40 126t-20.5 167.5t-5.5 218.5zM209 627q0 -98 2 -164.5t9 -132.5t19.5 -107t32.5 -77.5t50 -55.5t70.5 -30t94.5 -11q67 0 114 17.5t75 47t43.5 81t20.5 106t5 135.5q0 224 -50 313t-191 89 q-87 0 -152.5 -37.5t-142.5 -138.5v-35z" />
<glyph unicode="7" horiz-adv-x="800" d="M35 1413h629q45 0 59.5 -22.5t1.5 -71.5l-363 -1319h-88l342 1255q5 25 27 84h-602z" />
<glyph unicode="8" horiz-adv-x="999" d="M127 352q0 183 42 273.5t144 103.5v8q-85 12 -123 92t-38 232q0 100 15.5 166.5t55 114t107 69t170.5 21.5q104 0 172 -21t107.5 -69t55 -114.5t15.5 -166.5q0 -152 -39.5 -232t-124.5 -92v-8q103 -13 144.5 -103.5t41.5 -273.5q0 -104 -15.5 -170t-57.5 -112.5 t-113.5 -66t-185.5 -21.5q-111 -1 -183 19t-114.5 66.5t-59 113.5t-16.5 171zM211 362q0 -86 12.5 -141t45.5 -93t88.5 -53.5t142.5 -15.5q90 0 145.5 15.5t87 54t42.5 92t11 141.5q0 75 -4.5 126t-18 90t-32.5 61t-53 36t-74.5 18.5t-101.5 4.5q-94 -1 -146 -12.5t-87 -49 t-46.5 -100.5t-11.5 -174zM233 1057q0 -95 10.5 -149.5t43 -87t81 -42.5t134.5 -10q87 0 135.5 10.5t79.5 44t40 86.5t9 148q0 88 -10.5 142t-40 91.5t-80.5 52.5t-135 15q-82 0 -133.5 -15t-81.5 -52.5t-41 -92t-11 -141.5z" />
<glyph unicode="9" horiz-adv-x="931" d="M100 967q0 238 77 354.5t269 116.5q62 0 109 -8t84.5 -28t63.5 -46t44.5 -72t29.5 -95t17.5 -125t8.5 -152t2 -187q0 -139 -8 -245t-23 -186t-41.5 -135.5t-58 -91.5t-78.5 -56t-97.5 -28t-119.5 -8q-131 0 -221 27l12 61q86 -12 209 -12q66 0 111 9t85 34t65 69 t43.5 115.5t26.5 170.5t9 237q-68 -101 -138 -140.5t-175 -39.5q-165 0 -235.5 116t-70.5 345zM184 963q0 -196 53.5 -292t186.5 -96q86 0 150.5 37.5t144.5 139.5q0 77 -0.5 129.5t-3 110.5t-7 96t-12 78.5t-18 65t-26 49.5t-35 38.5t-45 24.5t-56.5 15.5t-70 4.5 q-64 0 -110 -18t-75 -50t-46.5 -83.5t-24 -110.5t-6.5 -139z" />
<glyph unicode=":" horiz-adv-x="360" d="M129 35v123q0 19 8 27t27 8h29q19 0 26.5 -8t7.5 -27v-123q0 -19 -7.5 -27t-26.5 -8h-29q-19 0 -27 8t-8 27zM129 727v125q0 19 8 27t27 8h29q19 0 26.5 -8t7.5 -27v-125q0 -19 -7.5 -27t-26.5 -8h-29q-19 0 -27 8t-8 27z" />
<glyph unicode=";" horiz-adv-x="364" d="M133 727v125q0 19 8 27t27 8h29q19 0 26.5 -8t7.5 -27v-125q0 -19 -7.5 -27t-26.5 -8h-29q-19 0 -27 8t-8 27zM135 31v127q2 19 10 27t27 8h27q18 0 25 -8t7 -27v-131q-4 -153 -43 -275l-41 15q13 133 13 233q-11 0 -18 9t-7 22z" />
<glyph unicode="&#x3c;" horiz-adv-x="880" d="M98 571v70l656 369v-70l-580 -334l580 -325v-70z" />
<glyph unicode="=" horiz-adv-x="962" d="M131 344v68h700v-68h-700zM131 778v68h700v-68h-700z" />
<glyph unicode="&#x3e;" horiz-adv-x="880" d="M127 211v70l580 325l-580 334v70l655 -369v-70z" />
<glyph unicode="?" horiz-adv-x="831" d="M76 1419q11 2 42.5 9t42 9t37 7t44 6.5t46.5 4t61 3t71 0.5q328 0 328 -317q0 -63 -17 -118.5t-43.5 -98t-59 -84t-65 -84.5t-59.5 -89.5t-44.5 -110t-17.5 -136.5h-75q-1 109 29 197t72.5 146.5t85.5 111.5t73.5 118t31.5 140q1 130 -59.5 191.5t-191.5 61.5 q-30 0 -57 -0.5t-46.5 -1t-42.5 -2.5t-35 -3t-35.5 -4t-32.5 -4t-37 -5.5t-38 -5.5zM354 35v123q0 19 8 27t27 8h27q33 0 33 -35v-123q0 -35 -33 -35h-27q-19 0 -27 8t-8 27z" />
<glyph unicode="@" horiz-adv-x="1155" d="M139 543q0 112 2 187t11 144.5t20.5 110.5t36 78t52.5 54.5t75 31t99 17.5t128 5h232q113 0 172 -60.5t59 -192.5v-652h-61l-13 162q-55 -64 -155.5 -119t-198.5 -55t-153.5 58.5t-55.5 164.5v109q0 97 48 149.5t138 52.5h371v127q0 90 -36.5 138t-125.5 47h-219 q-64 0 -102.5 -2t-78.5 -11.5t-61.5 -23.5t-43 -44.5t-30 -67.5t-16.5 -99.5t-10 -133t-2 -175.5q0 -87 1 -148.5t6 -119.5t10.5 -96t19.5 -72.5t27 -54.5t38.5 -37t49 -25t64 -13.5t78 -6.5t95.5 -1h410v-63q-270 -8 -408 -8q-85 -1 -142.5 1.5t-110 15.5t-84 31 t-58.5 55.5t-40.5 80.5t-23 115.5t-12 150.5t-2.5 195zM469 485q0 -158 139 -161q82 -1 178 46t160 117v248l-348 -8q-66 -3 -97.5 -39t-31.5 -108v-95z" />
<glyph unicode="A" horiz-adv-x="1003" d="M25 0l389 1386q1 12 12 19.5t23 7.5h106q28 0 35 -27l389 -1386h-92l-135 498h-500l-135 -498h-92zM272 571h459l-178 658l-31 114h-41l-30 -114z" />
<glyph unicode="B" horiz-adv-x="1011" d="M158 0v1413q129 17 340 17q106 0 174 -16.5t113.5 -59t64 -113t18.5 -180.5q0 -155 -45.5 -233.5t-146.5 -90.5v-8q123 -13 175 -106.5t52 -270.5q0 -110 -18.5 -180.5t-62.5 -112.5t-108.5 -58.5t-164.5 -16.5q-250 0 -391 16zM244 61q136 -4 295 -4q107 0 163.5 24.5 t83.5 89.5t27 189q0 100 -14.5 164t-50 102.5t-88 54t-134.5 17.5h-282v-637zM244 766h280q99 1 153 25t80.5 86t26.5 178q0 93 -14.5 151t-50.5 91.5t-87.5 46t-135.5 12.5q-193 0 -252 -2v-588z" />
<glyph unicode="C" horiz-adv-x="940" d="M115 707q0 206 22 342.5t73.5 224.5t132.5 126t202 38q174 0 295 -37l-13 -62q-135 23 -282 23q-129 0 -202 -63.5t-105.5 -204t-32.5 -387.5t32.5 -388t105.5 -204.5t202 -63.5q173 0 305 27l14 -64q-133 -39 -319 -39q-161 0 -254 71.5t-134.5 229t-41.5 431.5z" />
<glyph unicode="D" horiz-adv-x="1087" d="M158 0v1413q215 19 389 19q159 0 250.5 -70t133.5 -226.5t42 -428.5t-42 -428.5t-133.5 -226.5t-250.5 -70q-182 0 -389 18zM246 61q176 -4 301 -4q126 0 197.5 62.5t104 202.5t32.5 385t-32.5 384.5t-104 202t-197.5 62.5q-121 0 -301 -4v-1291z" />
<glyph unicode="E" horiz-adv-x="913" d="M147 217v979q0 95 53 156t138 61q327 0 483 -8l-2 -64h-465q-56 0 -87 -43t-31 -116v-391l516 -3v-67l-516 -2v-488q0 -73 31 -116t87 -43h465l2 -64q-156 -8 -483 -8q-86 0 -138.5 60.5t-52.5 156.5z" />
<glyph unicode="F" horiz-adv-x="876" d="M152 0v1194q0 98 52.5 158.5t137.5 60.5q317 0 473 -10l-6 -62h-447q-57 0 -89.5 -43t-32.5 -116v-404h503v-69h-503v-709h-88z" />
<glyph unicode="G" horiz-adv-x="1026" d="M115 709q0 275 43 432t139 227t264 70q186 0 318 -37l-13 -62q-147 23 -303 23q-136 0 -212 -60t-111 -201t-35 -396q0 -350 67.5 -502t227.5 -152q50 0 94.5 14.5t86.5 46.5t67.5 56.5t68.5 69.5v581h86v-819h-63l-15 166q-64 -86 -151 -138.5t-193 -52.5 q-195 0 -280.5 173.5t-85.5 560.5z" />
<glyph unicode="H" horiz-adv-x="1089" d="M158 0v1413h88v-618h598v618h88v-1413h-88v721h-598v-721h-88z" />
<glyph unicode="I" horiz-adv-x="403" d="M158 0v1413h88v-1413h-88z" />
<glyph unicode="J" horiz-adv-x="544" d="M57 2l11 57h90q147 0 147 193v1161h86v-1161q0 -132 -53 -199t-156 -67q-59 0 -125 16z" />
<glyph unicode="K" horiz-adv-x="944" d="M158 0v1413h86v-473q0 -92 -8 -168h163l379 641h96l-360 -610q-22 -42 -47 -64v-4q36 -36 51 -65l383 -670h-98l-404 702h-161q6 -88 6 -170v-532h-86z" />
<glyph unicode="L" horiz-adv-x="837" d="M152 223v1190h88v-1182q0 -73 32 -116t90 -43h431l2 -62q-147 -10 -447 -10q-94 0 -145 61.5t-51 161.5z" />
<glyph unicode="M" horiz-adv-x="1419" d="M133 0l49 1370q0 43 39 43h115q29 0 39 -29l266 -991l49 -190h37q6 22 17 61t20 71.5t16 61.5l264 987q6 29 39 29h113q41 0 41 -43l49 -1370h-86l-45 1341h-39l-317 -1179q-10 -29 -39 -29h-101q-31 0 -41 29l-315 1179h-39l-45 -1341h-86z" />
<glyph unicode="N" horiz-adv-x="1142" d="M158 0v1372q0 41 39 41h104q36 0 47 -31l445 -1128q6 -14 69 -176h39q-2 66 -2 192v1143h86v-1372q0 -41 -37 -41h-110q-34 0 -45 31l-457 1155q-35 83 -62 151h-30q2 -51 2 -153v-1184h-88z" />
<glyph unicode="O" horiz-adv-x="1091" d="M115 707q0 276 41.5 433t134.5 227.5t256 70.5q161 0 253.5 -70.5t134.5 -228t42 -432.5t-42 -433t-134.5 -228.5t-253.5 -70.5q-123 0 -204 37.5t-132.5 125.5t-73.5 225t-22 344zM205 707q0 -247 33 -388t106.5 -204.5t202.5 -63.5q128 0 201 63.5t106 204.5t33 388 t-33 388t-106 204t-201 63q-129 0 -202.5 -63t-106.5 -204t-33 -388z" />
<glyph unicode="P" horiz-adv-x="960" d="M158 0v1413q147 17 377 17q131 0 203 -37t105.5 -128t33.5 -257q0 -168 -33.5 -259t-104 -127t-198.5 -36q-178 0 -295 10v-596h-88zM246 659h284q98 0 152 30t80 105t26 214t-26 214t-80 104.5t-152 29.5q-218 0 -284 -4v-693z" />
<glyph unicode="Q" horiz-adv-x="1091" d="M115 707q0 276 41.5 433t134.5 227.5t256 70.5q161 0 253.5 -70.5t134.5 -228t42 -432.5t-42 -433t-134.5 -228.5t-253.5 -70.5q-123 0 -204 37.5t-132.5 125.5t-73.5 225t-22 344zM205 707q0 -247 33 -388t106.5 -204.5t202.5 -63.5q128 0 201 63.5t106 204.5t33 388 t-33 388t-106 204t-201 63q-129 0 -202.5 -63t-106.5 -204t-33 -388zM457 -150l28 50q165 -120 398 -166l-27 -84q-224 42 -399 200z" />
<glyph unicode="R" horiz-adv-x="1005" d="M158 0v1413q147 17 377 17q129 0 201 -35t106.5 -121.5t34.5 -243.5q0 -186 -48 -270t-159 -103v-10q42 -15 77 -67.5t54 -128.5l117 -451h-93l-112 444q-26 96 -66.5 137.5t-103.5 41.5q-198 0 -297 6v-629h-88zM246 698h286q98 2 152 30.5t80.5 99.5t26.5 200 q0 191 -57 259.5t-202 68.5q-154 0 -286 -4v-654z" />
<glyph unicode="S" horiz-adv-x="915" d="M100 1071q0 63 5 113t16.5 87.5t26.5 64.5t39 45.5t49 30t62 17t72 7.5q21 1 47 0h38q170 -3 319 -29l-6 -61q-229 14 -309 14q-87 0 -126.5 -5.5t-79 -33t-52.5 -87t-13 -165.5q0 -143 37.5 -207.5t126.5 -83.5l242 -51q125 -23 176 -109t51 -268q0 -71 -7.5 -125.5 t-21 -94.5t-37 -67t-50 -44t-67 -26.5t-80 -12.5t-95.5 -3q-187 0 -344 27l8 64q197 -15 312 -15h26q54 1 89.5 5.5t68 16t51.5 31.5t33.5 53t20 79.5t5.5 111.5q0 153 -37 216.5t-129 82.5l-245 51q-119 23 -170.5 111.5t-51.5 259.5z" />
<glyph unicode="T" horiz-adv-x="935" d="M41 1339v74h854v-74h-383v-1339h-88v1339h-383z" />
<glyph unicode="U" horiz-adv-x="1095" d="M150 526v887h88v-887q0 -262 69.5 -368.5t241.5 -106.5q169 0 239 106.5t70 368.5v887h88v-887q0 -299 -89.5 -425t-305.5 -126q-219 0 -310 126t-91 425z" />
<glyph unicode="V" horiz-adv-x="985" d="M37 1413h92l305 -1192q24 -89 39 -151h41q7 38 39 153l305 1190h92l-368 -1386q-12 -27 -37 -27h-103q-28 0 -36 27z" />
<glyph unicode="W" horiz-adv-x="1540" d="M53 1413h90l226 -1194q11 -56 26 -149h43q4 27 13.5 75.5t13.5 71.5l213 1163q7 33 37 33h108q32 0 39 -33l213 -1161q4 -27 13.5 -76.5t13.5 -72.5h43q16 98 26 147l226 1196h92l-270 -1384q-11 -29 -39 -29h-113q-14 0 -25 9t-14 22l-209 1155l-31 160h-36 q-24 -128 -29 -160l-211 -1155q-3 -13 -14 -22t-25 -9h-115q-13 0 -23 8.5t-13 20.5z" />
<glyph unicode="X" horiz-adv-x="987" d="M53 0l340 735l-319 678h94l299 -641h53l297 641h96l-321 -678l342 -735h-96l-320 702h-49l-322 -702h-94z" />
<glyph unicode="Y" horiz-adv-x="907" d="M27 1413h96l268 -649l58 -146h10l57 144l270 651h93l-381 -895v-518h-88v518z" />
<glyph unicode="Z" horiz-adv-x="921" d="M82 0v74l659 1265h-651v74h741v-74l-657 -1265h668v-74h-760z" />
<glyph unicode="[" horiz-adv-x="524" d="M164 -262v1759q0 34 18 55t47 21h220v-64h-185q-8 0 -14 -7.5t-6 -18.5v-1731q0 -12 6 -19t14 -7h185v-64h-220q-29 0 -47 20.5t-18 55.5z" />
<glyph unicode="\" horiz-adv-x="827" d="M53 1413h76l645 -1538h-76z" />
<glyph unicode="]" horiz-adv-x="524" d="M76 -274h182q23 0 23 26v1731q0 26 -23 26h-182v64h217q31 0 49 -21t18 -55v-1759q0 -34 -18 -55t-49 -21h-217v64z" />
<glyph unicode="^" horiz-adv-x="667" d="M49 780l254 412h62l253 -412l-34 -28l-242 366h-12l-244 -366z" />
<glyph unicode="_" horiz-adv-x="712" d="M0 0h713v-68h-713v68z" />
<glyph unicode="`" horiz-adv-x="483" d="M68 1399l51 59l262 -297l-33 -41z" />
<glyph unicode="a" horiz-adv-x="890" d="M98 242v123q0 112 53 173.5t150 61.5h369v125q-2 103 -40 158t-132 55q-127 0 -361 -31l-8 62q5 1 54 9t63.5 10.5t58 8.5t69.5 8t64 4.5t72 2.5q121 0 182.5 -67.5t61.5 -219.5v-725h-64l-14 178q-58 -74 -157 -133t-202 -59q-102 0 -160.5 67t-58.5 189zM184 248 q0 -184 146 -187h8q72 -1 163 49q96 52 169 134v291l-359 -7q-127 -3 -127 -170v-110z" />
<glyph unicode="b" horiz-adv-x="925" d="M139 41v1393h84v-426q0 -132 -8 -195q169 199 320 199q153 0 220.5 -119.5t67.5 -398.5q0 -278 -75.5 -398.5t-260.5 -120.5q-166 0 -348 66zM223 92q119 -43 247 -43h17q134 0 191 100.5t57 344.5q0 246 -48.5 345t-172.5 99q-68 0 -133 -44.5t-158 -145.5v-656z" />
<glyph unicode="c" horiz-adv-x="792" d="M102 494q0 285 84 401.5t287 116.5q145 0 238 -39l-15 -55q-90 20 -211 20q-112 0 -174 -39.5t-91.5 -135.5t-29.5 -269t29.5 -269t91.5 -136t174 -40q132 0 232 23l10 -58q-119 -39 -254 -39q-203 0 -287 117t-84 402z" />
<glyph unicode="d" horiz-adv-x="929" d="M104 494q0 280 69 399t224 119q142 0 310 -97q-5 55 -5 189v330h84v-1434h-65l-10 162q-163 -187 -322 -187q-153 0 -219 121.5t-66 397.5zM193 496q0 -247 49.5 -347t167.5 -100q70 0 134 40.5t158 137.5v623q-95 47 -158 67.5t-130 20.5q-121 0 -171 -98t-50 -344z" />
<glyph unicode="e" horiz-adv-x="874" d="M102 498q0 282 81.5 398t271.5 116q164 0 243.5 -72.5t81.5 -218.5q0 -136 -42 -202t-138 -66h-410q4 -153 36 -241.5t92 -125.5t159 -37q129 0 275 25l8 -58q-43 -18 -132 -29.5t-161 -11.5q-196 0 -280.5 120.5t-84.5 402.5zM190 520h396q60 0 85 50q23 47 23 133v14 q-1 116 -57.5 168.5t-177.5 52.5q-148 0 -208 -92.5t-61 -325.5z" />
<glyph unicode="f" horiz-adv-x="600" d="M51 918v59l146 10v199q0 141 50 209.5t167 68.5q133 0 207 -10l-5 -61h-174q-90 0 -125.5 -46.5t-35.5 -164.5v-195h276v-69h-276v-918h-84v918h-146z" />
<glyph unicode="g" horiz-adv-x="903" d="M82 -129q0 92 27.5 153.5t99.5 106.5l22 14q-55 29 -74 87q-10 33 -10 66q0 27 7 54q15 61 55 103q-94 73 -94 247q0 159 76 234.5t253 75.5q98 0 168 -25h250l-6 -53l-151 -8q65 -74 65 -224q0 -158 -75.5 -231.5t-250.5 -73.5q-120 0 -190 33q-20 -35 -28 -72 q-6 -22 -6 -44q0 -13 2 -26q5 -34 29.5 -59.5t67.5 -35.5l310 -68q102 -22 144 -81t42 -179q0 -164 -80 -228.5t-284 -64.5q-207 0 -288 65.5t-81 233.5zM166 -123q0 -133 58 -183t222 -50q165 0 225 48.5t60 178.5q0 89 -29.5 130.5t-111.5 59.5l-299 64l-31 -25 q-55 -43 -74.5 -94t-19.5 -129zM195 702q0 -124 57.5 -180.5t191.5 -56.5q132 0 188 56.5t56 180.5q0 125 -55.5 183.5t-188.5 58.5q-135 0 -192 -58.5t-57 -183.5z" />
<glyph unicode="h" horiz-adv-x="942" d="M141 0v1434h84l2 -428q0 -118 -8 -189q211 195 371 195q106 0 160.5 -69t54.5 -202v-741h-84v725q0 112 -37 162.5t-117 50.5q-75 0 -151.5 -44t-190.5 -144v-750h-84z" />
<glyph unicode="i" horiz-adv-x="385" d="M143 1243v123q0 33 29 33h39q31 0 31 -33v-123q0 -33 -31 -33h-39q-29 0 -29 33zM150 0v987h83v-987h-83z" />
<glyph unicode="j" horiz-adv-x="385" d="M59 -391q46 72 68.5 145.5t22.5 169.5v1063h83v-1063q0 -203 -127 -350zM143 1243v123q0 33 29 33h41q29 0 29 -33v-123q0 -33 -29 -33h-41q-29 0 -29 33z" />
<glyph unicode="k" horiz-adv-x="802" d="M141 0v1434h84l2 -670q0 -82 -6 -168h121l293 391h98l-276 -377q-5 -7 -45 -47v-4q39 -47 45 -59l303 -500h-96l-320 530h-123q4 -59 4 -174v-356h-84z" />
<glyph unicode="l" horiz-adv-x="462" d="M143 205v1229h84v-1217q0 -76 31 -116t90 -40h88l10 -59q-40 -16 -122 -16q-83 0 -132 57.5t-49 161.5z" />
<glyph unicode="m" horiz-adv-x="1441" d="M143 0v987h68l8 -172q179 197 338 197q173 0 203 -193q175 193 336 193q102 0 155.5 -69t53.5 -202v-741h-84v725q-1 110 -38 161.5t-112 51.5q-69 0 -133.5 -41t-171.5 -143v-13v-741h-84v725q0 109 -37 161t-113 52q-68 0 -133.5 -41.5t-171.5 -142.5v-754h-84z" />
<glyph unicode="n" horiz-adv-x="944" d="M143 0v987h70l6 -172q197 197 373 197q106 0 160.5 -69t54.5 -202v-741h-86v725q0 112 -36.5 162.5t-115.5 50.5q-75 0 -151.5 -44t-190.5 -144v-750h-84z" />
<glyph unicode="o" horiz-adv-x="923" d="M102 494q0 284 81.5 401t279.5 117t278 -116.5t80 -401.5q0 -286 -80 -402.5t-278 -116.5t-279.5 117t-81.5 402zM190 494q0 -252 60.5 -349.5t212.5 -97.5q103 0 161 42t83.5 137.5t25.5 267.5q0 253 -58.5 348.5t-211.5 95.5q-103 0 -161 -41t-85 -136.5t-27 -266.5z " />
<glyph unicode="p" horiz-adv-x="935" d="M143 -426v1413h68l10 -172q74 96 159 146.5t169 50.5q150 0 215 -122t65 -398q0 -279 -68.5 -398t-223.5 -119q-154 0 -316 107q6 -52 6 -191v-317h-84zM227 139q94 -47 160 -68.5t133 -21.5q121 0 172 99t51 344q0 244 -49.5 345t-165.5 101q-70 0 -139 -43.5 t-162 -142.5v-613z" />
<glyph unicode="q" horiz-adv-x="927" d="M102 494q0 280 76 399t266 119q157 0 342 -66v-1372h-84l-2 393q0 124 11 193q-89 -93 -168.5 -139t-165.5 -46q-142 0 -208.5 125t-66.5 394zM190 487q0 -234 47.5 -336t161.5 -102q74 0 139 40t164 134v670q-123 45 -256 45q-95 0 -149.5 -41.5t-80.5 -139t-26 -270.5z " />
<glyph unicode="r" horiz-adv-x="641" d="M143 0v987h66l10 -172q197 197 356 197h33l-12 -78h-37q-71 0 -143 -42t-189 -138v-754h-84z" />
<glyph unicode="s" horiz-adv-x="825" d="M92 748q0 73 12.5 122t34 77.5t62 43.5t82.5 19q33 3 81 3q14 0 29 -1q177 -4 320 -27l-8 -59q-191 12 -304 14q-27 1 -51 1q-12 -1 -22 -1q-32 0 -57.5 -5.5t-43.5 -17.5t-29 -34t-16.5 -54.5t-5.5 -80.5q0 -97 30 -138.5t95 -52.5l250 -47q93 -19 137.5 -79t44.5 -177 q0 -62 -8.5 -107.5t-28.5 -75.5t-44.5 -49t-64.5 -29t-80 -13t-99 -3q-159 0 -297 25l8 59q113 -12 231 -12h47q76 1 120 8t76.5 29t45 62t12.5 106q0 92 -34 132.5t-99 53.5l-250 47q-91 18 -133.5 78t-42.5 183z" />
<glyph unicode="t" horiz-adv-x="593" d="M49 918v59l146 10v305h84v-305h274v-69h-274v-701q0 -80 29.5 -118t90.5 -38h133l11 -59q-75 -16 -158 -16q-94 0 -142 57.5t-48 165.5v709h-146z" />
<glyph unicode="u" horiz-adv-x="927" d="M137 246v741h84v-725q0 -110 38 -161.5t118 -51.5q72 0 143.5 43t179.5 141v754h84v-987h-67l-8 166q-191 -191 -357 -191q-106 0 -160.5 69t-54.5 202z" />
<glyph unicode="v" horiz-adv-x="851" d="M41 987h90l227 -739q5 -14 56 -182h20q57 174 60 184l225 737h90l-309 -964q-13 -23 -35 -23h-80q-26 0 -33 23z" />
<glyph unicode="w" horiz-adv-x="1341" d="M49 987h88l199 -788q14 -52 33 -138h22l31 140l172 757q3 12 13.5 20.5t23.5 8.5h80q13 0 22.5 -8.5t11.5 -20.5l173 -757q13 -52 32 -140h25q27 126 31 140l198 786h90l-258 -960q-7 -27 -35 -27h-81q-12 0 -23 8.5t-14 20.5l-170 747q-18 88 -35 150h-16 q-5 -27 -16.5 -77.5t-16.5 -72.5l-172 -747q-2 -12 -12 -20.5t-23 -8.5h-80q-30 0 -37 27z" />
<glyph unicode="x" horiz-adv-x="845" d="M49 0l285 512l-264 475h92l239 -438h43l238 438h94l-266 -475l287 -512h-95l-262 481h-34l-263 -481h-94z" />
<glyph unicode="y" horiz-adv-x="847" d="M41 987h90l250 -809q5 -18 16.5 -55t16.5 -55h20q3 9 17 50.5t20 61.5l246 807h90l-342 -1073q-47 -141 -114.5 -227.5t-182.5 -114.5l-12 51q91 41 143 116t88 191l25 70h-27q-25 0 -37 25z" />
<glyph unicode="z" horiz-adv-x="829" d="M84 0v70l567 845h-563v72h651v-72l-565 -845h571v-70h-661z" />
<glyph unicode="{" horiz-adv-x="505" d="M86 633v78q59 24 72 36q25 23 27 96q1 16 1 36v432q0 140 56.5 202.5t185.5 59.5v-55q-89 0 -124.5 -50t-35.5 -159v-408q1 -121 -25 -164t-108 -65q59 -24 86.5 -47t40 -62t12.5 -112v-525q0 -108 35.5 -158.5t124.5 -50.5v-55q-128 -3 -184.5 60t-56.5 202v549 q0 28 -1.5 48t-10 36t-12.5 24t-22.5 19.5t-25 15t-35.5 17.5z" />
<glyph unicode="|" horiz-adv-x="393" d="M164 -346v1945h65v-1945h-65z" />
<glyph unicode="}" horiz-adv-x="505" d="M72 -283q89 0 124 50.5t35 158.5v525q0 105 27 145.5t113 75.5q-82 22 -108 65t-25 164v408q0 109 -35.5 159t-124.5 50v55q128 3 184.5 -60t56.5 -202v-432q0 -64 8.5 -94t23.5 -41.5t56 -27.5q9 -3 13 -5v-78q-62 -30 -78 -45q-31 -31 -31 -115v-549 q0 -140 -55.5 -202.5t-183.5 -59.5v55z" />
<glyph unicode="~" horiz-adv-x="868" d="M135 487q-6 98 29 150t96 49q44 -4 91 -24.5t82 -43.5t81 -43.5t88 -23.5q47 -4 66.5 25t19.5 100h47q6 -96 -28.5 -147t-96.5 -46q-51 4 -101 24.5t-83.5 43t-76.5 43t-81 24.5q-47 4 -66.5 -27t-19.5 -104h-47z" />
<glyph unicode="&#xa2;" horiz-adv-x="833" d="M102 717q0 284 84 401t285 117l14 178h52l-11 -180q117 -8 183 -37l-13 -57q-65 18 -178 22l-51 -891h18q124 0 232 25l10 -57q-119 -39 -256 -39h-10l-15 -199h-51l15 201q-167 17 -237.5 135t-70.5 381zM188 717q0 -228 51.5 -327t176.5 -116l49 887 q-104 -3 -163 -44.5t-86.5 -136.5t-27.5 -263z" />
<glyph unicode="&#xa3;" horiz-adv-x="925" d="M100 715v57h131l-12 303q-3 80 4.5 139.5t27 98.5t44 64t62.5 37.5t75 17t90 4.5q110 0 273 -21l-7 -63q-117 10 -288 10q-114 0 -158 -64.5t-39 -218.5l12 -307h385l-4 -57h-377l9 -207q5 -160 -20.5 -265.5t-98.5 -170.5q33 2 102 2h525v-74h-725v74q81 61 109.5 167 t21.5 267l-9 207h-133z" />
<glyph unicode="&#xa5;" horiz-adv-x="999" d="M74 1413h92l266 -606q14 -27 64 -145h10q9 24 59 143l266 608h93l-355 -778h285v-57h-309l-2 -3v-165h311v-58h-311v-352h-86v352h-303v58h303v165l-2 3h-301v57h276z" />
<glyph unicode="&#xa8;" horiz-adv-x="665" d="M145 1245v115q0 29 27 29h31q26 0 26 -29v-115q0 -28 -26 -28h-31q-27 0 -27 28zM436 1245v115q0 29 27 29h31q26 0 26 -29v-115q0 -28 -26 -28h-31q-27 0 -27 28z" />
<glyph unicode="&#xa9;" horiz-adv-x="1392" d="M109 707q0 208 78.5 376t212.5 261.5t296 93.5q121 0 229 -55t187 -151t125.5 -232.5t46.5 -292.5t-46.5 -293t-125 -232.5t-187 -151t-229.5 -55.5t-229 55.5t-187 151t-125 232.5t-46 293zM162 707q0 -190 72 -346t194.5 -243t267.5 -87t267.5 87t195 243t72.5 346 t-72.5 346t-195 242.5t-267.5 86.5q-109 0 -207 -51.5t-170 -140t-114.5 -214.5t-42.5 -269zM385 713q0 258 71.5 363.5t248.5 105.5q134 0 219 -27l-11 -47q-87 10 -208 10q-141 0 -196.5 -89t-55.5 -316q0 -228 55.5 -318t196.5 -90q152 0 229 14l8 -49q-98 -26 -237 -26 q-177 0 -248.5 105.5t-71.5 363.5z" />
<glyph unicode="&#xab;" d="M78 502v24l266 406l43 -31l-227 -387l229 -393l-43 -31zM356 502v24l265 406l43 -31l-226 -387l228 -393l-43 -31z" />
<glyph unicode="&#xad;" d="M131 481v68h506v-68h-506z" />
<glyph unicode="&#xae;" horiz-adv-x="933" d="M102 981q0 189 106.5 322t258.5 133t258 -133t106 -322q0 -191 -106 -324t-258 -133t-258.5 133t-106.5 324zM141 981q0 -173 95.5 -294.5t230.5 -121.5q134 0 230 121.5t96 294.5q0 171 -96 293.5t-230 122.5q-135 0 -230.5 -122t-95.5 -294zM303 696v568q57 6 180 6 q93 0 131.5 -35t38.5 -127q0 -71 -23.5 -105.5t-78.5 -41.5v-5q44 -9 63 -79l58 -181h-49l-54 176q-22 70 -80 70q-110 0 -141 2v-248h-45zM348 979h135q69 2 96 28t27 97q0 74 -26.5 99.5t-96.5 25.5h-135v-250z" />
<glyph unicode="&#xb4;" horiz-adv-x="483" d="M94 1161l262 297l52 -59l-279 -279z" />
<glyph unicode="&#xb8;" horiz-adv-x="370" d="M63 -455l15 47q74 -4 121 47.5t49 127.5q0 52 -21 72.5t-77 21.5l10 43q80 6 117 -25t34 -108q-2 -112 -71 -177.5t-177 -48.5z" />
<glyph unicode="&#xbb;" d="M102 121l228 393l-226 387l43 31l265 -406v-24l-267 -412zM379 121l227 393l-225 387l43 31l264 -406v-24l-266 -412z" />
<glyph unicode="&#x2c6;" horiz-adv-x="663" d="M80 1202l221 244h61l222 -244l-33 -39l-213 207h-12l-213 -207z" />
<glyph unicode="&#x2da;" horiz-adv-x="485" d="M76 1307q0 83 49 140.5t117 57.5q69 0 117.5 -57.5t48.5 -140.5q0 -84 -48.5 -142.5t-117.5 -58.5q-68 0 -117 58.5t-49 142.5zM131 1307q0 -65 32 -106.5t79 -41.5q48 0 80 41.5t32 106.5q0 63 -32.5 105t-79.5 42t-79 -42t-32 -105z" />
<glyph unicode="&#x2dc;" horiz-adv-x="669" d="M86 1219q-4 98 31.5 149t95.5 45q42 -4 81.5 -35t78 -62t78.5 -36q47 -4 67.5 25t20.5 98h43q6 -94 -28.5 -144.5t-96.5 -44.5q-37 3 -72 23.5t-57.5 43.5t-52 43.5t-56.5 23.5q-46 7 -67 -25t-21 -104h-45z" />
<glyph unicode="&#x401;" horiz-adv-x="911" d="M147 217v979q0 96 52.5 156.5t138.5 60.5q327 0 483 -8l-4 -64h-465q-55 0 -85.5 -43t-30.5 -116v-391l516 -3v-67l-516 -2v-488q0 -73 30.5 -116t85.5 -43h465l4 -64q-156 -8 -483 -8q-86 0 -138.5 60.5t-52.5 156.5zM322 1665v115q0 28 26 28h31q24 0 24 -28v-115 q0 -29 -24 -29h-31q-26 0 -26 29zM612 1665v115q0 28 27 28h31q24 0 24 -28v-115q0 -29 -24 -29h-31q-27 0 -27 29z" />
<glyph unicode="&#x402;" horiz-adv-x="1230" d="M41 1339v74h854v-74h-383v-600q95 83 179 117.5t179 34.5q135 0 206 -98.5t71 -327.5q0 -254 -109 -364t-309 -101l-8 59q84 6 142.5 25.5t104.5 63.5t68.5 121t22.5 190q0 139 -25 218t-69.5 108.5t-118.5 29.5q-92 0 -164.5 -34.5t-169.5 -116.5v-664h-88v1339h-383z " />
<glyph unicode="&#x403;" horiz-adv-x="845" d="M152 0v1190q0 98 53 160.5t133 62.5q315 0 469 -10l-4 -62h-441q-58 0 -90 -43.5t-32 -119.5v-1178h-88zM410 1544l262 297l51 -59l-279 -279z" />
<glyph unicode="&#x404;" horiz-adv-x="942" d="M115 707q0 273 43 430.5t138.5 229t260.5 71.5q180 0 301 -37l-12 -64q-133 25 -289 25q-185 0 -264 -127.5t-88 -443.5l506 -3v-65l-506 -2v-14q0 -247 34 -388t109.5 -204.5t208.5 -63.5q169 0 301 27l12 -64q-130 -39 -313 -39q-165 0 -260.5 71.5t-138.5 229.5 t-43 431z" />
<glyph unicode="&#x405;" horiz-adv-x="915" d="M100 1071q0 63 5 113t16.5 87.5t26.5 64.5t39 45.5t49 30t62 17t72 7t85 0.5q170 -3 319 -29l-6 -61q-229 14 -309 14q-87 0 -126.5 -5.5t-79 -33t-52.5 -87t-13 -165.5q0 -143 37.5 -207.5t126.5 -83.5l242 -51q125 -23 176 -109t51 -268q0 -71 -7.5 -125.5t-21 -94.5 t-37 -67t-50 -44t-67 -26.5t-80 -12.5t-95.5 -3q-187 0 -344 27l8 64q220 -17 338 -15q54 1 89.5 5.5t68 16t51.5 31.5t33.5 53t20 79.5t5.5 111.5q0 153 -37 216.5t-129 82.5l-245 51q-119 23 -170.5 111.5t-51.5 259.5z" />
<glyph unicode="&#x406;" horiz-adv-x="403" d="M158 0v1413h88v-1413h-88z" />
<glyph unicode="&#x407;" horiz-adv-x="401" d="M12 1616v115q0 28 27 28h31q26 0 26 -28v-115q0 -29 -26 -29h-31q-27 0 -27 29zM158 0v1413h86v-1413h-86zM305 1616v115q0 28 25 28h30q27 0 27 -28v-115q0 -29 -27 -29h-30q-25 0 -25 29z" />
<glyph unicode="&#x408;" horiz-adv-x="544" d="M57 2l11 57h90q147 0 147 193v1161h86v-1161q0 -132 -53 -199t-156 -67q-59 0 -125 16z" />
<glyph unicode="&#x409;" horiz-adv-x="1587" d="M39 59q45 27 83 72.5t79 134.5q60 136 79 286.5t50 635.5q15 225 200 225h347v-612h270q200 0 277 -92t77 -318q0 -161 -36 -249.5t-108 -123t-200 -34.5q-235 0 -369 16v1341h-247q-61 0 -92 -40t-37 -123q-32 -495 -49 -622q-24 -183 -82 -314q-91 -215 -232 -242z M877 61q63 -2 270 -2q104 0 158.5 27t80 98.5t25.5 208.5q0 189 -54.5 261.5t-209.5 72.5h-270v-666z" />
<glyph unicode="&#x40a;" horiz-adv-x="1611" d="M158 0v1413h88v-616h567v616h86v-616h270q202 0 279.5 -91t77.5 -315q0 -161 -35.5 -249.5t-107.5 -123t-201 -34.5q-235 0 -369 16v725h-567v-725h-88zM899 61q63 -2 270 -2q105 0 160 27t81 98t26 207q0 188 -55.5 261t-211.5 73h-270v-664z" />
<glyph unicode="&#x40b;" horiz-adv-x="1286" d="M41 1339v74h854v-74h-383v-602q208 154 424 154q246 0 246 -303v-588h-86v573q0 126 -44.5 184t-142.5 58q-108 0 -196 -33.5t-201 -119.5v-662h-88v1339h-383z" />
<glyph unicode="&#x40c;" horiz-adv-x="962" d="M158 0v1413h86v-473q0 -92 -8 -168h149q41 0 78 17.5t66 44t57.5 73.5t49 89t45 109t40.5 115.5t40 125.5q14 45 21 67h88q-10 -31 -30 -94q-19 -62 -29.5 -94t-30 -89.5t-32 -88.5t-33 -78t-37 -73.5t-39.5 -58.5t-45 -49.5t-49 -31.5t-56 -17v-4q38 -3 73 -22.5 t61.5 -45t54.5 -74t47 -88.5t45 -111.5t42 -119t44 -135.5t45 -139h-94q-13 42 -35.5 114.5t-34.5 110.5t-32.5 99t-34.5 94t-35 79.5t-39 71.5t-43 54.5t-49.5 44t-55.5 24.5t-65 10h-145q6 -88 6 -170v-532h-86zM424 1544l262 297l51 -59l-278 -279z" />
<glyph unicode="&#x40d;" horiz-adv-x="1126" d="M158 0v1413h86v-1134q0 -54 -4 -156h4q10 22 32.5 72t32.5 71l547 1147h111v-1413h-86v1143q0 98 2 149h-4q-14 -41 -58 -135l-555 -1157h-108zM328 1782l51 59l262 -297l-33 -41z" />
<glyph unicode="&#x40e;" horiz-adv-x="899" d="M47 1413h90l260 -881q13 -43 45 -43h72l266 924h90l-319 -1079q-53 -167 -83 -225q-60 -114 -146 -121q-36 -3 -89.5 4t-89.5 20l13 60q34 -6 58 -10t48 -3.5t39.5 1.5t32 10.5t26 17t22.5 28t20.5 37t19.5 50.5t20 61t23 76l24 78h-69q-75 0 -96 78zM219 1784l47 8 q0 -86 49.5 -134t137.5 -48q86 0 135 48t49 134l47 -8q3 -112 -59.5 -178t-171.5 -66q-110 0 -173.5 66t-60.5 178z" />
<glyph unicode="&#x40f;" horiz-adv-x="1099" d="M158 0v1413h88v-1341h608v1341h88v-1413h-352l-6 -309h-60l-8 309h-358z" />
<glyph unicode="&#x410;" horiz-adv-x="1003" d="M25 0l389 1386q1 12 12 19.5t23 7.5h106q28 0 35 -27l389 -1386h-92l-135 498h-500l-135 -498h-92zM272 571h459l-178 658l-31 114h-41l-30 -114z" />
<glyph unicode="&#x411;" horiz-adv-x="978" d="M158 0v1413q188 10 338 10q143 0 331 -10l-10 -70h-571v-573h282q201 0 279 -88t78 -307q0 -120 -20.5 -197t-68.5 -119.5t-112.5 -58.5t-165.5 -16q-220 0 -358 16h-2zM246 59q66 -2 282 -2q78 0 126 13.5t81.5 49.5t46.5 97t13 160q0 183 -55.5 252t-211.5 69h-282 v-639z" />
<glyph unicode="&#x412;" horiz-adv-x="1011" d="M158 0v1413q129 17 340 17q106 0 174 -16.5t113.5 -59t64 -113t18.5 -180.5q0 -155 -45.5 -233.5t-146.5 -90.5v-8q123 -13 175 -106.5t52 -270.5q0 -110 -18.5 -180.5t-62.5 -112.5t-108.5 -58.5t-164.5 -16.5q-250 0 -391 16zM244 61q136 -4 295 -4q107 0 163.5 24.5 t83.5 89.5t27 189q0 100 -14.5 164t-50 102.5t-88 54t-134.5 17.5h-282v-637zM244 766h280q99 1 153 25t80.5 86t26.5 178q0 93 -14.5 151t-50.5 91.5t-87.5 46t-135.5 12.5q-193 0 -252 -2v-588z" />
<glyph unicode="&#x413;" horiz-adv-x="845" d="M152 0v1190q0 98 53 160.5t133 62.5q315 0 469 -10l-4 -62h-441q-58 0 -90 -43.5t-32 -119.5v-1178h-88z" />
<glyph unicode="&#x414;" horiz-adv-x="1103" d="M39 72h92q97 225 138 501.5t50 614.5q3 109 54 167t145 58h391v-1341h138v-381h-62l-10 309h-862l-13 -309h-61v381zM217 72h604v1269h-291q-121 0 -127 -159q-10 -344 -50.5 -615.5t-135.5 -494.5z" />
<glyph unicode="&#x415;" horiz-adv-x="911" d="M147 217v979q0 96 52.5 156.5t138.5 60.5q327 0 483 -8l-4 -64h-465q-55 0 -85.5 -43t-30.5 -116v-391l516 -3v-67l-516 -2v-488q0 -73 30.5 -116t85.5 -43h465l4 -64q-156 -8 -483 -8q-86 0 -138.5 60.5t-52.5 156.5z" />
<glyph unicode="&#x416;" horiz-adv-x="1462" d="M61 0q14 43 35.5 112t34.5 110t33 100.5t34.5 96t35.5 84t38.5 76.5t41.5 60.5t47.5 49.5t52 30.5t59.5 15.5v4q-124 15 -220 214q-51 106 -136 374q-18 57 -27 86h88q88 -268 97 -292q85 -232 176 -306q54 -43 118 -43h136q-9 86 -9 168v473h82v-473q0 -97 -10 -168h125 q54 0 101 31.5t82 81.5t68 126t58.5 150.5t55.5 168.5q17 55 26 83h90q-10 -31 -30 -92.5t-31 -95.5t-30 -89.5t-32.5 -88t-33.5 -78.5t-37 -73t-40 -59t-45 -50t-49 -31.5t-55 -16.5v-4q31 -3 59.5 -15.5t52 -30t47.5 -50t41.5 -60.5t38.5 -76t35 -84t34 -96.5t32.5 -100.5 t34.5 -110t35 -112h-92q-14 44 -36 114.5t-35 110.5t-33 99.5t-34 93.5t-35 79.5t-38.5 71.5t-41.5 55t-48.5 43.5t-54 24.5t-62.5 10h-123q10 -74 10 -170v-532h-82v532q0 82 9 170h-132q-33 0 -63 -10t-54.5 -24.5t-48.5 -43.5t-42 -55t-38.5 -71.5t-34.5 -80t-34 -93.5 t-33 -99.5t-35 -110.5t-36 -114h-93z" />
<glyph unicode="&#x417;" horiz-adv-x="897" d="M66 16l10 62q14 -1 76.5 -7t132 -10t139.5 -4q79 0 128 12.5t83 46.5t47.5 92t13.5 152q0 195 -62.5 266.5t-223.5 71.5h-177v68h177q97 0 151 24.5t79.5 87t25.5 177.5q0 93 -14.5 151t-50.5 91.5t-87 46t-133 12.5q-78 0 -179 -8.5t-104 -8.5l-8 62q142 29 295 29 q106 0 173 -16.5t112.5 -59t64.5 -113t19 -180.5q0 -154 -46.5 -233t-146.5 -91v-8q123 -13 174 -106.5t51 -270.5q0 -110 -18.5 -180.5t-62 -112.5t-107.5 -58.5t-164 -16.5q-221 0 -368 32z" />
<glyph unicode="&#x418;" horiz-adv-x="1126" d="M158 0v1413h86v-1134q0 -54 -4 -156h4q10 22 32.5 72t32.5 71l547 1147h111v-1413h-86v1143q0 98 2 149h-4q-14 -41 -58 -135l-555 -1157h-108z" />
<glyph unicode="&#x419;" horiz-adv-x="1126" d="M158 0v1413h86v-1134q0 -54 -4 -156h4q10 22 32.5 72t32.5 71l547 1147h111v-1413h-86v1143q0 98 2 149h-4q-14 -41 -58 -135l-555 -1157h-108zM334 1798h67q0 -97 44.5 -151t121.5 -54q75 0 119.5 54t44.5 151h68q3 -114 -60 -186t-172 -72t-172.5 72t-60.5 186z" />
<glyph unicode="&#x41a;" horiz-adv-x="962" d="M158 0v1413h86v-473q0 -92 -8 -168h149q41 0 78 17.5t66 44t57.5 73.5t49 89t45 109t40.5 115.5t40 125.5q14 45 21 67h88q-10 -31 -30 -94q-19 -62 -29.5 -94t-30 -89.5t-32 -88.5t-33 -78t-37 -73.5t-39.5 -58.5t-45 -49.5t-49 -31.5t-56 -17v-4q38 -3 73 -22.5 t61.5 -45t54.5 -74t47 -88.5t45 -111.5t42 -119t44 -135.5t45 -139h-94q-13 42 -35.5 114.5t-34.5 110.5t-32.5 99t-34.5 94t-35 79.5t-39 71.5t-43 54.5t-49.5 44t-55.5 24.5t-65 10h-145q6 -88 6 -170v-532h-86z" />
<glyph unicode="&#x41b;" horiz-adv-x="1052" d="M20 66q49 26 88 71t74 129q58 134 78 285t53 639q7 110 57.5 166.5t139.5 56.5h385v-1413h-88v1341h-279q-119 0 -131 -163q-31 -476 -52 -639.5t-81 -298.5q-42 -94 -101.5 -158t-131.5 -82z" />
<glyph unicode="&#x41c;" horiz-adv-x="1419" d="M133 0l49 1370q0 43 39 43h115q29 0 39 -29l266 -991l49 -190h37q6 22 17 61t20 71.5t16 61.5l264 987q6 29 39 29h113q41 0 41 -43l49 -1370h-88l-45 1341h-37l-317 -1179q-10 -29 -39 -29h-101q-31 0 -41 29l-315 1179h-37l-45 -1341h-88z" />
<glyph unicode="&#x41d;" horiz-adv-x="1089" d="M158 0v1413h88v-618h598v618h88v-1413h-88v721h-598v-721h-88z" />
<glyph unicode="&#x41e;" horiz-adv-x="1091" d="M115 707q0 276 41.5 433t134.5 227.5t256 70.5q161 0 253.5 -70.5t134.5 -228t42 -432.5t-42 -433t-134.5 -228.5t-253.5 -70.5q-123 0 -204 37.5t-132.5 125.5t-73.5 225t-22 344zM205 707q0 -247 33 -388t106.5 -204.5t202.5 -63.5q128 0 201 63.5t106 204.5t33 388 t-33 388t-106 204t-201 63q-129 0 -202.5 -63t-106.5 -204t-33 -388z" />
<glyph unicode="&#x41f;" horiz-adv-x="1091" d="M158 0v1413h776v-1413h-86v1341h-602v-1341h-88z" />
<glyph unicode="&#x420;" horiz-adv-x="960" d="M158 0v1413q147 17 377 17q131 0 203 -37t105.5 -128t33.5 -257q0 -168 -33.5 -259t-104 -127t-198.5 -36q-178 0 -295 10v-596h-88zM246 659h284q98 0 152 30t80 105t26 214t-26 214t-80 104.5t-152 29.5q-218 0 -284 -4v-693z" />
<glyph unicode="&#x421;" horiz-adv-x="927" d="M115 707q0 206 22 342.5t73.5 224.5t132.5 126t202 38q174 0 295 -37l-13 -62q-135 23 -282 23q-129 0 -202 -63.5t-105.5 -204t-32.5 -387.5t32.5 -388t105.5 -204.5t202 -63.5q173 0 305 27l14 -64q-133 -39 -319 -39q-161 0 -254 71.5t-134.5 229t-41.5 431.5z" />
<glyph unicode="&#x422;" horiz-adv-x="935" d="M41 1339v74h854v-74h-383v-1339h-88v1339h-383z" />
<glyph unicode="&#x423;" horiz-adv-x="899" d="M47 1413h90l260 -881q13 -43 45 -43h72l266 924h90l-319 -1079q-53 -167 -83 -225q-60 -114 -146 -121q-36 -3 -89.5 4t-89.5 20l13 60q34 -6 58 -10t48 -3.5t39.5 1.5t32 10.5t26 17t22.5 28t20.5 37t19.5 50.5t20 61t23 76l24 78h-69q-75 0 -96 78z" />
<glyph unicode="&#x424;" horiz-adv-x="1347" d="M104 725q0 167 27.5 279t91 185t162.5 106.5t246 37.5v213h86l2 -213q146 -5 244 -38.5t161.5 -106t91 -185t27.5 -278.5q0 -325 -118 -461t-406 -145v-211h-88v211q-290 7 -408.5 143.5t-118.5 462.5zM195 725q0 -151 22 -249t74.5 -161t134 -90.5t207.5 -31.5v1069 q-126 -4 -207.5 -31.5t-134 -91.5t-74.5 -163t-22 -251zM715 193q167 5 260 56t135.5 163.5t42.5 312.5q0 152 -22 251t-75 163t-134.5 91.5t-206.5 31.5v-1069z" />
<glyph unicode="&#x425;" horiz-adv-x="985" d="M53 0l340 735l-319 678h94l299 -641h51l299 641h96l-321 -678l342 -735h-96l-322 702h-47l-322 -702h-94z" />
<glyph unicode="&#x426;" horiz-adv-x="1118" d="M158 0v1413h88v-1341h590v1341h88v-1341h137v-381h-62l-14 309h-827z" />
<glyph unicode="&#x427;" horiz-adv-x="1009" d="M109 842v571h88v-557q0 -125 42.5 -182.5t135.5 -57.5q104 0 190.5 33.5t198.5 118.5v645h88v-1413h-88v696q-198 -155 -416 -155q-121 0 -180 74.5t-59 226.5z" />
<glyph unicode="&#x428;" horiz-adv-x="1503" d="M158 0v1413h86v-1341h465v1341h86v-1341h462v1341h86v-1413h-1185z" />
<glyph unicode="&#x429;" horiz-adv-x="1523" d="M158 0v1413h86v-1341h456v1341h86v-1341h457v1341h86v-1341h137v-381h-61l-10 309h-1237z" />
<glyph unicode="&#x42a;" horiz-adv-x="1222" d="M41 1339v74h461v-612h282q199 0 276 -92t77 -318q0 -161 -35 -249.5t-107 -123t-202 -34.5q-241 0 -379 16v1339h-373zM502 61q66 -2 282 -2q77 0 125 13.5t81 51t46 101.5t13 166q0 189 -55 262.5t-210 73.5h-282v-666z" />
<glyph unicode="&#x42b;" horiz-adv-x="1357" d="M158 0v1413h88v-612h282q200 0 277.5 -92t77.5 -318q0 -161 -35.5 -249.5t-107.5 -123t-201 -34.5q-241 0 -379 16h-2zM246 61q66 -2 282 -2q78 0 126 13.5t81.5 51t46.5 101.5t13 166q0 189 -56 262.5t-211 73.5h-282v-666zM1112 0v1413h86v-1413h-86z" />
<glyph unicode="&#x42c;" horiz-adv-x="970" d="M158 0v1413h88v-612h282q200 0 277.5 -92t77.5 -318q0 -161 -35.5 -249.5t-107.5 -123t-201 -34.5q-241 0 -379 16h-2zM246 61q66 -2 282 -2q78 0 126 13.5t81.5 51t46.5 101.5t13 166q0 189 -56 262.5t-211 73.5h-282v-666z" />
<glyph unicode="&#x42d;" horiz-adv-x="942" d="M72 14l12 64q132 -27 301 -27q133 0 208.5 63.5t109.5 204.5t34 388v14l-506 2v65l506 3q-9 316 -88 443.5t-264 127.5q-158 0 -291 -25l-12 64q123 37 301 37q166 0 262 -71.5t139 -229t43 -430.5t-43 -431t-139 -229.5t-262 -71.5q-181 0 -311 39z" />
<glyph unicode="&#x42e;" horiz-adv-x="1488" d="M158 0v1413h88v-641h284q5 249 47.5 393t129.5 208.5t235 64.5q163 0 256 -70.5t134.5 -227.5t41.5 -433q0 -207 -22 -344t-73.5 -225t-132.5 -125.5t-204 -37.5q-153 0 -241.5 69.5t-129.5 226.5t-41 429h-284v-700h-88zM618 707q0 -247 31 -388t100.5 -204.5 t192.5 -63.5q130 0 203.5 63.5t106 204t32.5 388.5q0 247 -32.5 387.5t-106 204t-203.5 63.5q-123 0 -192.5 -63.5t-100.5 -204t-31 -387.5z" />
<glyph unicode="&#x42f;" horiz-adv-x="997" d="M80 0l117 432q44 159 139 197l-2 10q-67 13 -113.5 69.5t-67 134.5t-20.5 171q0 229 80 322.5t262 93.5q225 0 365 -17v-1413h-88v610q-99 -6 -297 -6q-61 0 -102.5 -42t-67.5 -136l-109 -426h-96zM221 1010q0 -152 56.5 -242t181.5 -90h293v674q-63 4 -275 4 q-136 0 -196 -76t-60 -270z" />
<glyph unicode="&#x430;" horiz-adv-x="892" d="M98 242v123q0 112 53 173.5t150 61.5h371v125q-2 103 -40.5 158t-133.5 55q-125 0 -359 -31l-8 62q8 1 54 9t62.5 10.5t58.5 8.5t68.5 8.5t64.5 4.5t73 2q120 0 181 -67.5t61 -219.5v-725h-64l-14 178q-58 -74 -157 -133t-202 -59q-102 0 -160.5 67t-58.5 189zM184 248 q0 -184 146 -187q77 -3 173 49.5t169 135.5v289l-359 -7q-129 -3 -129 -170v-110z" />
<glyph unicode="&#x431;" horiz-adv-x="931" d="M129 604q0 122 4 206.5t16 166.5t33.5 137.5t56.5 105t84.5 83t118.5 59.5q27 9 77.5 24t79 25t73 34t88.5 58l22 -61q-43 -34 -89.5 -60t-73 -36.5t-80 -28t-70.5 -23.5q-59 -22 -102.5 -53.5t-71.5 -68.5t-46.5 -88.5t-27.5 -103.5t-14 -122q-6 -48 -10 -141h2 q9 37 21 66.5t36 64t56 57t84 38t118 15.5q173 0 242 -109.5t69 -377.5q0 -120 -14 -204t-51 -153.5t-107.5 -104t-175.5 -34.5q-60 0 -108.5 10.5t-83.5 34.5t-61 52.5t-43 74.5t-27.5 89.5t-16 109t-7 121.5t-1.5 137zM217 477q0 -241 59 -334.5t205 -93.5 q96 0 150.5 39.5t80 132.5t25.5 258q0 230 -53.5 319t-191.5 89q-68 0 -117.5 -19.5t-79.5 -53t-47.5 -87.5t-24 -112.5t-6.5 -137.5z" />
<glyph unicode="&#x432;" horiz-adv-x="903" d="M143 0v985q115 12 301 12q185 0 257.5 -55t72.5 -209q0 -106 -40.5 -160t-131.5 -63v-4q109 -10 155 -74.5t46 -187.5q0 -148 -70 -202t-244 -54q-215 0 -346 12zM223 57q59 -2 256 -2q134 0 186 41t52 160q0 126 -55 173.5t-195 47.5h-244v-420zM223 539h244 q129 2 177 40t48 150q0 118 -54.5 158.5t-195.5 40.5q-166 0 -219 -2v-387z" />
<glyph unicode="&#x433;" horiz-adv-x="737" d="M139 0v788q0 95 43 147t121 52q262 0 391 -8l-2 -61h-358q-57 0 -84 -35.5t-27 -110.5v-772h-84z" />
<glyph unicode="&#x434;" horiz-adv-x="929" d="M49 68h74q129 267 147 720q3 97 47 148t127 51h312v-919h98v-365h-57l-11 297h-669l-11 -297h-57v365zM201 68h473v852h-215q-105 0 -111 -140q-10 -216 -42.5 -391t-104.5 -321z" />
<glyph unicode="&#x435;" horiz-adv-x="876" d="M104 498q0 283 81 398.5t272 115.5q163 0 242 -72.5t81 -218.5q2 -135 -40.5 -201.5t-137.5 -66.5h-409q6 -226 72 -315t214 -89q125 0 275 25l8 -58q-45 -18 -133.5 -29.5t-159.5 -11.5q-196 0 -280.5 120.5t-84.5 402.5zM193 520h393q62 0 87 50t23 147q-3 117 -59 169 t-178 52q-146 0 -205.5 -92.5t-60.5 -325.5z" />
<glyph unicode="&#x436;" horiz-adv-x="1269" d="M68 0q80 235 99 283q67 161 146 207q34 20 74 24v2q-41 5 -77 30.5t-62.5 62.5t-52 92.5t-45 109.5t-43.5 125q-11 34 -17 51h86q71 -203 99 -263q69 -147 157 -172q20 -5 41 -5h135q-6 39 -6 119v321h76v-321q0 -60 -6 -119h127q41 0 77.5 23.5t60.5 52.5t53.5 92.5 t44 103.5t44.5 125q10 29 15 43h88q-6 -17 -17 -50q-21 -61 -31.5 -91t-30.5 -81.5t-34.5 -78.5t-36.5 -63t-43 -54.5t-48.5 -34t-57.5 -18.5v-2q38 -4 69 -18.5t60 -53t47 -64.5t45 -96t37.5 -101t41.5 -124q13 -38 19 -57h-86q-82 233 -91 255q-61 151 -128 197 q-41 28 -94 29h-133q8 -52 8 -112v-369h-76v369q0 60 8 112h-141q-43 -1 -78 -19.5t-62 -53t-50.5 -82.5t-46.5 -109.5t-47 -131.5q-19 -56 -29 -85h-88z" />
<glyph unicode="&#x437;" horiz-adv-x="794" d="M72 10l8 62q206 -15 276 -15q138 0 192 45.5t54 153.5q0 125 -53 170t-189 47l-170 2v62l170 2q129 2 175.5 40.5t46.5 151.5q0 121 -55 159t-212 38q-134 0 -217 -13l-8 62q103 22 232 22q194 0 268 -53.5t74 -204.5q0 -109 -37.5 -165t-130.5 -66v-4 q103 -10 148.5 -72.5t45.5 -189.5q0 -138 -75 -198t-253 -60q-173 0 -290 24z" />
<glyph unicode="&#x438;" horiz-adv-x="958" d="M143 0v987h78v-754v-124h2q7 16 17 34.5t22 38.5t17 29l444 776h92v-987h-78v760q0 78 2 117h-2q-8 -18 -27.5 -54t-23.5 -43l-450 -780h-93z" />
<glyph unicode="&#x439;" horiz-adv-x="958" d="M143 0v987h78v-754v-124h2q7 16 17 34.5t22 38.5t17 29l444 776h92v-987h-78v760q0 78 2 117h-2q-8 -18 -27.5 -54t-23.5 -43l-450 -780h-93zM242 1427h67q0 -97 44.5 -150.5t121.5 -53.5q75 0 119.5 53.5t44.5 150.5h68q3 -114 -60 -186t-172 -72t-172.5 72t-60.5 186z " />
<glyph unicode="&#x43a;" horiz-adv-x="862" d="M143 0v987h84v-321q0 -60 -6 -119h141q116 0 197 136q43 72 113 265q9 26 14 39h86q-74 -209 -105 -273q-74 -156 -170 -189q-19 -7 -40 -9v-2q48 -4 89.5 -33t68.5 -59t61.5 -106t50 -117.5t53.5 -150.5q11 -32 17 -48h-90q-78 224 -106 284q-64 140 -146 178 q-39 18 -86 19h-150q8 -52 8 -112v-369h-84z" />
<glyph unicode="&#x43b;" horiz-adv-x="899" d="M35 55q98 47 141 164q21 56 37 146t22.5 147.5t15 164.5t9.5 114q11 99 53.5 147.5t128.5 48.5h314v-987h-86v920h-215q-55 0 -81 -33.5t-34 -106.5q-2 -25 -8.5 -98t-10 -108.5t-11 -100t-15 -105.5t-19.5 -90.5t-26 -87.5q-26 -77 -78.5 -130t-126.5 -70z" />
<glyph unicode="&#x43c;" horiz-adv-x="1202" d="M127 0l35 950q0 37 39 37h100q25 0 35 -29l207 -665q5 -18 20.5 -65t22.5 -72h28q30 88 43 137l209 665q10 29 37 29h101q15 0 24.5 -10t9.5 -27l37 -950h-78l-36 920h-29l-252 -797q-10 -29 -37 -29h-86q-25 0 -35 29l-252 797h-30l-35 -920h-78z" />
<glyph unicode="&#x43d;" horiz-adv-x="942" d="M143 0v987h84v-428h488v428h82v-987h-82v494h-488v-494h-84z" />
<glyph unicode="&#x43e;" horiz-adv-x="925" d="M104 494q0 284 81 401t278 117q198 0 278 -116.5t80 -401.5q0 -286 -80 -402.5t-278 -116.5q-197 0 -278 117t-81 402zM193 494q0 -171 26 -267t84 -138t160 -42q153 0 212.5 97t59.5 350q0 171 -26 266.5t-84 136.5t-162 41q-152 0 -211 -96t-59 -348z" />
<glyph unicode="&#x43f;" horiz-adv-x="935" d="M143 0v987h648v-987h-82v918h-482v-918h-84z" />
<glyph unicode="&#x440;" horiz-adv-x="937" d="M143 -426v1413h68l10 -170q160 195 328 195q151 0 216.5 -121.5t65.5 -398.5q0 -279 -69 -398t-225 -119t-316 109q9 -81 6 -193v-317h-84zM227 139q97 -47 162.5 -68.5t132.5 -21.5q121 0 171 98.5t50 344.5q0 244 -49.5 345t-165.5 101q-69 0 -139 -44t-162 -144v-611z " />
<glyph unicode="&#x441;" horiz-adv-x="796" d="M104 494q0 285 83.5 401.5t285.5 116.5q145 0 238 -39l-13 -55q-94 20 -211 20q-112 0 -174 -39.5t-91 -135.5t-29 -269t29 -269t91.5 -136t173.5 -40q133 0 230 23l10 -58q-119 -39 -254 -39q-202 0 -285.5 117t-83.5 402z" />
<glyph unicode="&#x442;" horiz-adv-x="788" d="M47 915v72h694v-72h-305v-915h-84v915h-305z" />
<glyph unicode="&#x443;" horiz-adv-x="847" d="M43 987h90l248 -809q4 -14 16.5 -51.5t16.5 -58.5h20q3 9 17 50.5t20 61.5l246 807h90l-342 -1073q-62 -198 -143 -272q-100 -87 -250 -62l6 53q123 -7 192 62q62 64 117 235l25 70h-27q-26 0 -35 25z" />
<glyph unicode="&#x444;" horiz-adv-x="1159" d="M102 494q0 270 100.5 389.5t338.5 128.5v422h80v-422q237 -9 336.5 -128.5t99.5 -389.5t-99.5 -390t-336.5 -129v-401h-80v401q-238 9 -338.5 129t-100.5 390zM184 494q0 -162 35.5 -257t112.5 -139t209 -49v889q-132 -5 -209 -49t-112.5 -138.5t-35.5 -256.5zM618 49 q133 5 210 49t112 138.5t35 257.5q0 240 -79.5 338t-277.5 106v-889z" />
<glyph unicode="&#x445;" horiz-adv-x="849" d="M51 0l287 512l-266 475h94l242 -438h34l242 438h94l-264 -475l285 -512h-94l-267 481h-26l-265 -481h-96z" />
<glyph unicode="&#x446;" horiz-adv-x="950" d="M143 0v987h84v-919h465v919h84v-919h98v-361h-57l-12 293h-662z" />
<glyph unicode="&#x447;" horiz-adv-x="849" d="M100 578v409h82v-389q0 -84 29.5 -122t93.5 -38q85 0 156.5 22t161.5 77v450h82v-987h-82v465q-165 -98 -342 -98q-181 0 -181 211z" />
<glyph unicode="&#x448;" horiz-adv-x="1300" d="M143 0v987h84v-919h383v919h80v-919h385v919h82v-987h-1014z" />
<glyph unicode="&#x449;" horiz-adv-x="1333" d="M143 0v987h84v-919h383v919h78v-919h387v919h82v-919h98v-361h-57l-10 293h-1045z" />
<glyph unicode="&#x44a;" horiz-adv-x="1032" d="M47 918v69h375v-422h227q170 0 236.5 -64.5t66.5 -224.5q0 -166 -66.5 -227t-226.5 -61q-199 0 -319 12v918h-293zM422 59q53 -2 227 -2q121 0 168 45.5t47 176.5q0 124 -46 172.5t-169 48.5h-227v-441z" />
<glyph unicode="&#x44b;" horiz-adv-x="1140" d="M143 0v987h84v-422h228q159 0 218.5 -64t59.5 -225q0 -166 -59.5 -227t-206.5 -61q-202 0 -322 12h-2zM227 59q53 -2 228 -2q109 0 150.5 45t41.5 177q0 125 -40.5 173t-151.5 48h-228v-441zM913 0v987h84v-987h-84z" />
<glyph unicode="&#x44c;" horiz-adv-x="837" d="M143 0v987h84v-422h228q171 0 236 -64.5t65 -224.5q0 -166 -64.5 -227t-224.5 -61q-202 0 -322 12h-2zM227 59q53 -2 228 -2q121 0 167 45t46 177q0 125 -44.5 173t-168.5 48h-228v-441z" />
<glyph unicode="&#x44d;" horiz-adv-x="811" d="M74 12l10 62q117 -19 250 -19q159 0 222.5 91.5t64.5 324.5l-414 2v62l414 2q-6 216 -69.5 301.5t-217.5 85.5q-119 0 -242 -15l-10 60q99 26 252 26q206 0 289.5 -112.5t83.5 -393.5q0 -280 -83.5 -393.5t-289.5 -113.5q-149 0 -260 30z" />
<glyph unicode="&#x44e;" horiz-adv-x="1280" d="M143 0v987h84v-444h234q6 263 83.5 366t264.5 103q138 0 216.5 -48.5t114.5 -159.5t36 -306t-36 -306t-114.5 -159.5t-216.5 -48.5q-129 0 -203 46.5t-108.5 152.5t-36.5 294h-234v-477h-84zM545 498q0 -251 56.5 -347t205.5 -96q157 0 217.5 96.5t60.5 346.5t-60.5 346 t-217.5 96q-149 0 -205.5 -95.5t-56.5 -346.5z" />
<glyph unicode="&#x44f;" horiz-adv-x="874" d="M80 0l76 289q14 58 56 90.5t99 40.5v6q-190 11 -190 289t272 278q217 0 338 -14v-979h-82v391h-241q-72 0 -116.5 -33.5t-58.5 -93.5l-65 -264h-88zM205 702q0 -124 46 -184.5t159 -60.5h239v463q-57 4 -254 4q-105 0 -147.5 -58.5t-42.5 -163.5z" />
<glyph unicode="&#x451;" horiz-adv-x="876" d="M104 498q0 283 81 398.5t272 115.5q163 0 242 -72.5t81 -218.5q2 -135 -40.5 -201.5t-137.5 -66.5h-409q6 -226 72 -315t214 -89q125 0 275 25l8 -58q-45 -18 -133.5 -29.5t-159.5 -11.5q-196 0 -280.5 120.5t-84.5 402.5zM193 520h393q62 0 87 50t23 147q-3 117 -59 169 t-178 52q-146 0 -205.5 -92.5t-60.5 -325.5zM272 1245v115q0 29 25 29h31q26 0 26 -29v-115q0 -28 -26 -28h-31q-25 0 -25 28zM561 1245v115q0 29 27 29h30q27 0 27 -29v-115q0 -28 -27 -28h-30q-27 0 -27 28z" />
<glyph unicode="&#x452;" horiz-adv-x="944" d="M49 1038v56h129v340h84l2 -340h336v-56h-336l2 -237q0 -95 -10 -183q207 191 371 191q106 0 160.5 -69t54.5 -201v-615q0 -201 -129 -350l-47 35q92 143 92 315v598q0 109 -39 160t-123 51q-74 0 -149 -42.5t-185 -137.5v-553h-84v1038h-129z" />
<glyph unicode="&#x453;" horiz-adv-x="737" d="M139 0v788q0 95 43 147t121 52q262 0 391 -8l-2 -61h-358q-57 0 -84 -35.5t-27 -110.5v-772h-84zM340 1174l262 296l51 -59l-278 -278z" />
<glyph unicode="&#x454;" horiz-adv-x="813" d="M106 489q0 281 82.5 393.5t288.5 112.5q153 0 252 -26l-12 -60q-117 15 -240 15q-152 0 -215 -85.5t-69 -301.5l411 -2v-62l-411 -2q1 -233 64 -324.5t220 -91.5q133 0 250 19l12 -62q-114 -30 -262 -30q-205 0 -288 113.5t-83 393.5z" />
<glyph unicode="&#x455;" horiz-adv-x="827" d="M94 748q0 73 12.5 121.5t33.5 77.5t61 44t82 18.5t110 2.5q180 -4 320 -27l-8 -59q-185 12 -302 14q-41 1 -74 0.5t-58.5 -6.5t-43.5 -17.5t-29 -33.5t-16.5 -54.5t-5.5 -80.5q0 -97 30 -138.5t95 -52.5l250 -47q94 -19 139 -79t45 -177q0 -53 -7 -94t-19.5 -70.5 t-34.5 -49.5t-46 -32.5t-60.5 -19.5t-72 -9t-85.5 -2q-159 0 -299 25l8 59q136 -15 278 -12q77 1 121 8t76.5 29t44.5 61.5t12 106.5q0 92 -34 132.5t-99 53.5l-250 47q-91 18 -132.5 77.5t-41.5 183.5z" />
<glyph unicode="&#x456;" horiz-adv-x="385" d="M143 1243v123q0 33 29 33h39q31 0 31 -33v-123q0 -33 -31 -33h-39q-29 0 -29 33zM152 0v987h84v-987h-84z" />
<glyph unicode="&#x457;" horiz-adv-x="382" d="M4 1245v115q0 29 25 29h32q25 0 25 -29v-115q0 -28 -25 -28h-32q-25 0 -25 28zM150 0v987h83v-987h-83zM295 1245v115q0 29 24 29h31q27 0 27 -29v-115q0 -28 -27 -28h-31q-24 0 -24 28z" />
<glyph unicode="&#x458;" horiz-adv-x="385" d="M59 -391q47 73 70 146.5t23 168.5v1063h84v-1063q0 -200 -130 -350zM143 1243v123q0 33 31 33h39q29 0 29 -33v-123q0 -33 -29 -33h-39q-31 0 -31 33z" />
<glyph unicode="&#x459;" horiz-adv-x="1290" d="M49 57q32 23 48.5 36.5t40 42t40.5 65.5q44 98 58.5 194.5t39.5 423.5q15 168 164 168h273v-403h207q163 0 224.5 -66.5t61.5 -232.5q0 -99 -17 -158.5t-58.5 -90t-91.5 -39.5t-136 -9q-162 0 -270 12v922h-176q-48 0 -72.5 -27t-28.5 -88q-25 -318 -41 -425t-59 -204 q-57 -137 -197 -180zM713 57q49 -2 174 -2q56 0 90 4t64.5 17t46 39t24 67.5t8.5 104.5q0 130 -42.5 181.5t-157.5 51.5h-207v-463z" />
<glyph unicode="&#x45a;" horiz-adv-x="1306" d="M143 0v987h80v-409h426v409h80v-407h209q163 0 225 -66t62 -227q0 -118 -29 -183t-87.5 -90.5t-160.5 -25.5q-184 0 -299 12v514h-426v-514h-80zM729 57q49 -2 209 -2q113 0 157 47.5t44 184.5q0 129 -42.5 179t-158.5 50h-209v-459z" />
<glyph unicode="&#x45b;" horiz-adv-x="944" d="M49 1038v56h129v340h84l2 -340h336v-56h-336l2 -237q0 -95 -10 -183q207 191 371 191q106 0 160.5 -69t54.5 -201v-539h-84v522q0 109 -39 160t-123 51q-74 0 -149 -42.5t-185 -137.5v-553h-84v1038h-129z" />
<glyph unicode="&#x45c;" horiz-adv-x="862" d="M143 0v987h84v-321q0 -60 -6 -119h141q116 0 197 136q43 72 113 265q9 26 14 39h86q-74 -209 -105 -273q-74 -156 -170 -189q-19 -7 -40 -9v-2q48 -4 89.5 -33t68.5 -59t61.5 -106t50 -117.5t53.5 -150.5q11 -32 17 -48h-90q-78 224 -106 284q-64 140 -146 178 q-39 18 -86 19h-150q8 -52 8 -112v-369h-84zM362 1174l263 296l51 -59l-279 -278z" />
<glyph unicode="&#x45d;" horiz-adv-x="958" d="M143 0v987h78v-754v-124h2q7 16 17 34.5t22 38.5t17 29l444 776h92v-987h-78v760q0 78 2 117h-2q-8 -18 -27.5 -54t-23.5 -43l-450 -780h-93zM233 1411l52 59l262 -296l-33 -41z" />
<glyph unicode="&#x45e;" horiz-adv-x="847" d="M43 987h90l248 -809q4 -14 16.5 -51.5t16.5 -58.5h20q3 9 17 50.5t20 61.5l246 807h90l-342 -1073q-62 -198 -143 -272q-100 -87 -250 -62l6 53q123 -7 192 62q62 64 117 235l25 70h-27q-26 0 -35 25zM195 1427h67q0 -97 44.5 -150.5t121.5 -53.5q75 0 119.5 53.5 t44.5 150.5h67q3 -114 -59.5 -186t-171.5 -72t-172.5 72t-60.5 186z" />
<glyph unicode="&#x45f;" horiz-adv-x="937" d="M143 0v987h84l2 -919h478l2 919h84v-987h-285l-10 -342h-58l-10 342h-287z" />
<glyph unicode="&#x490;" horiz-adv-x="849" d="M152 0v1190q0 98 53 160.5t133 62.5q268 0 401 -8l13 317h57v-321l-4 -60h-443q-58 0 -90 -43.5t-32 -119.5v-1178h-88z" />
<glyph unicode="&#x491;" horiz-adv-x="739" d="M141 0v788q0 95 42 147t120 52q215 0 324 -4l10 305h59l-2 -309l-2 -61h-358q-56 1 -82.5 -34.5t-26.5 -111.5v-772h-84z" />
<glyph unicode="&#x4b0;" horiz-adv-x="931" d="M41 1413h94l271 -659q46 -121 57 -146h10q15 44 55 144l271 661h92l-369 -868h246v-58h-258v-487h-86v487h-258v58h246z" />
<glyph unicode="&#x4b1;" horiz-adv-x="937" d="M45 987h94l269 -653q13 -30 57 -144h10l57 144l271 653h92l-369 -868h244v-58h-256v-487h-88v487h-258v58h246z" />
<glyph unicode="&#x4b6;" horiz-adv-x="1040" d="M109 842v571h88v-557q0 -125 44.5 -182.5t141.5 -57.5q102 0 187.5 34t195.5 118v645h86v-1347h129v-375h-59l-13 309h-143v692q-195 -151 -410 -151q-126 0 -186.5 74t-60.5 227z" />
<glyph unicode="&#x4b7;" horiz-adv-x="878" d="M100 578v409h82v-389q0 -84 29.5 -122t93.5 -38q85 0 156.5 22t161.5 77v450h82v-919h96v-361h-56l-12 293h-110v465q-165 -98 -342 -98q-181 0 -181 211z" />
<glyph unicode="&#x4ba;" horiz-adv-x="1009" d="M158 0v1413h88v-692q195 151 407 151q126 0 187 -74.5t61 -226.5v-571h-88v557q1 124 -43 182t-141 58q-102 0 -187.5 -34t-195.5 -118v-645h-88z" />
<glyph unicode="&#x4c0;" horiz-adv-x="403" d="M158 0v1413h88v-1413h-88z" />
<glyph unicode="&#x2000;" horiz-adv-x="920" />
<glyph unicode="&#x2001;" horiz-adv-x="1841" />
<glyph unicode="&#x2002;" horiz-adv-x="920" />
<glyph unicode="&#x2003;" horiz-adv-x="1841" />
<glyph unicode="&#x2004;" horiz-adv-x="613" />
<glyph unicode="&#x2005;" horiz-adv-x="460" />
<glyph unicode="&#x2006;" horiz-adv-x="306" />
<glyph unicode="&#x2007;" horiz-adv-x="306" />
<glyph unicode="&#x2008;" horiz-adv-x="230" />
<glyph unicode="&#x2009;" horiz-adv-x="368" />
<glyph unicode="&#x200a;" horiz-adv-x="102" />
<glyph unicode="&#x2010;" d="M131 481v68h506v-68h-506z" />
<glyph unicode="&#x2011;" d="M131 481v68h506v-68h-506z" />
<glyph unicode="&#x2012;" d="M131 481v68h506v-68h-506z" />
<glyph unicode="&#x2013;" horiz-adv-x="999" d="M131 481v68h737v-68h-737z" />
<glyph unicode="&#x2014;" horiz-adv-x="1505" d="M131 481v68h1243v-68h-1243z" />
<glyph unicode="&#x2018;" horiz-adv-x="337" d="M125 1098v129q3 147 41 270l39 -14q-10 -100 -10 -230q22 0 22 -28v-127q-3 -35 -35 -35h-26q-17 0 -24 8t-7 27z" />
<glyph unicode="&#x2019;" horiz-adv-x="333" d="M123 1317v127q0 35 33 35h26q17 0 24 -8t7 -27v-129q-3 -144 -39 -271l-41 15q10 103 10 229q-9 0 -15 8.5t-5 20.5z" />
<glyph unicode="&#x201a;" horiz-adv-x="356" d="M131 29v127q1 19 9.5 26.5t27.5 7.5h27q18 0 25 -7.5t7 -26.5v-129q-4 -151 -43 -271l-41 15q13 133 13 229q-10 0 -17.5 8.5t-7.5 20.5z" />
<glyph unicode="&#x201c;" horiz-adv-x="552" d="M123 1098l2 129q3 143 39 270l41 -14q-10 -133 -10 -230q22 0 22 -28v-127q-2 -18 -9.5 -25.5t-25.5 -7.5h-26q-17 0 -24 7.5t-9 25.5zM338 1098l2 129q4 154 39 270l41 -14q-10 -100 -10 -230q10 0 15.5 -7.5t4.5 -20.5v-127q0 -33 -33 -33h-26q-17 0 -24 7.5t-9 25.5z " />
<glyph unicode="&#x201d;" horiz-adv-x="548" d="M123 1317v127q0 35 33 35h26q17 0 24 -8t7 -27v-129q-3 -144 -39 -271l-41 15q10 103 10 229q-9 0 -15 8.5t-5 20.5zM336 1317v127q3 35 35 35h24q18 0 25.5 -8t7.5 -27v-129q-4 -148 -41 -271l-39 15q10 103 10 229q-9 0 -15.5 8.5t-6.5 20.5z" />
<glyph unicode="&#x201e;" horiz-adv-x="569" d="M131 29v127q0 34 35 34h24q18 0 24.5 -7.5t8.5 -26.5l-2 -129q-4 -155 -39 -271l-39 15q11 150 11 229q-11 0 -17.5 8.5t-5.5 20.5zM346 29v127q0 18 8 26t25 8h27q17 0 23.5 -7.5t8.5 -26.5l-2 -129q-4 -155 -39 -271l-41 15q13 133 13 229q-11 0 -17.5 8.5t-5.5 20.5z " />
<glyph unicode="&#x2020;" horiz-adv-x="727" d="M82 907v80h217v-67zM324 -225l2 1159v43l-2 438h79l-4 -438v-43l4 -1159h-79zM428 920v67h217v-80z" />
<glyph unicode="&#x2021;" horiz-adv-x="784" d="M111 203v80l217 -13v-67h-217zM111 907v80h217v-67zM352 -225l4 434v776l-4 430h82l-6 -430v-776l6 -434h-82zM457 203v67l217 13v-80h-217zM457 920v67h217v-80z" />
<glyph unicode="&#x2022;" horiz-adv-x="585" d="M162 539v22q0 78 27 108.5t96 30.5h18q66 0 92.5 -30.5t26.5 -108.5v-22q0 -81 -26.5 -112.5t-92.5 -31.5h-18q-69 0 -96 31.5t-27 112.5z" />
<glyph unicode="&#x2026;" horiz-adv-x="1320" d="M129 35v123q0 19 8 27t27 8h29q19 0 26.5 -8t7.5 -27v-123q0 -19 -7.5 -27t-26.5 -8h-29q-19 0 -27 8t-8 27zM610 35v123q0 19 8 27t27 8h29q19 0 27 -8t8 -27v-123q0 -19 -8 -27t-27 -8h-29q-19 0 -27 8t-8 27zM1094 35v123q0 19 7.5 27t26.5 8h29q19 0 27 -8t8 -27 v-123q0 -19 -8 -27t-27 -8h-29q-19 0 -26.5 8t-7.5 27z" />
<glyph unicode="&#x202f;" horiz-adv-x="368" />
<glyph unicode="&#x2030;" horiz-adv-x="2056" d="M90 1020q0 222 57.5 320t196.5 98q140 0 197 -97.5t57 -320.5t-57 -320.5t-197 -97.5q-139 0 -196.5 98t-57.5 320zM158 1020q0 -194 41 -277.5t143 -83.5q104 0 145 83.5t41 277.5t-41 277t-145 83q-102 0 -143 -83t-41 -277zM311 0l764 1413h66l-764 -1413h-66z M860 403q0 221 57 319.5t197 98.5q139 0 196.5 -98.5t57.5 -319.5q0 -222 -57.5 -320.5t-196.5 -98.5q-140 0 -197 98t-57 321zM928 403q0 -195 41 -278.5t145 -83.5q102 0 143 84t41 278t-41 277.5t-143 83.5q-104 0 -145 -83.5t-41 -277.5zM1456 403q0 221 57.5 319.5 t196.5 98.5t196.5 -98.5t57.5 -319.5q0 -222 -57.5 -320.5t-196.5 -98.5t-196.5 98.5t-57.5 320.5zM1526 403q0 -194 41 -278t143 -84q104 0 145 83.5t41 278.5q0 194 -41 277.5t-145 83.5q-102 0 -143 -83.5t-41 -277.5z" />
<glyph unicode="&#x2039;" horiz-adv-x="411" d="M45 502v24l266 406l43 -31l-227 -387l229 -393l-43 -31z" />
<glyph unicode="&#x203a;" horiz-adv-x="415" d="M57 121l228 393l-226 387l43 31l267 -406v-24l-269 -412z" />
<glyph unicode="&#x2044;" horiz-adv-x="262" d="M-287 0l764 1413h68l-764 -1413h-68z" />
<glyph unicode="&#x205f;" horiz-adv-x="460" />
<glyph unicode="&#x20ac;" horiz-adv-x="1056" d="M100 557v59h150l-2 91q0 90 4 131h-152v59h154q22 273 123 407t305 134q148 0 266 -37l-12 -64q-111 25 -258 25q-155 -3 -234 -117.5t-100 -347.5h451l-13 -59h-440q-4 -41 -4 -131l2 -91h377l-12 -59h-363q15 -256 94 -380.5t242 -125.5q155 0 272 27l13 -64 q-119 -39 -281 -39q-211 0 -311.5 143t-118.5 439h-152z" />
<glyph unicode="&#x2122;" horiz-adv-x="1566" d="M121 1370v55h518v-55h-227v-723h-66v723h-225zM729 647l27 748q3 30 28 30h74q23 0 29 -22l155 -522q6 -28 29 -107h23q6 27 28 109l154 520q6 22 27 22h77q26 0 29 -30l25 -748h-62l-26 725h-23l-184 -624q-3 -23 -27 -23h-59q-22 0 -29 23l-186 624h-21l-26 -725h-62z " />
<glyph unicode="&#x25fc;" horiz-adv-x="983" d="M0 0v983h983v-983h-983z" />
</font>
</defs>
</svg>
